<?xml version="1.0" encoding="UTF-8" standalone="no"?>
<!-- Created with Inkscape (http://www.inkscape.org/) -->

<svg
  width="100"
  height="100"
  viewBox="0 0 100 100"
  version="1.1"
  id="svg1"
  xml:space="preserve"
  xmlns="http://www.w3.org/2000/svg"
  xmlns:svg="http://www.w3.org/2000/svg"><defs
     id="defs1" /><g
     id="layer3"
     transform="translate(-4.0121524,-3.4763728)"><path
       d="m 4.0121527,58.476373 c 0,12.421876 10.0781253,22.500001 22.4999993,22.500001 h 57.500002 c 11.046869,0 19.999996,-8.953125 19.999996,-19.999997 0,-9.671874 -6.875,-17.750001 -16.000003,-19.593753 0.640621,-1.671875 1.000003,-3.499997 1.000003,-5.406247 0,-8.281255 -6.718748,-15.000004 -15.000003,-15.000004 -3.07812,0 -5.95312,0.937501 -8.328123,2.531249 -4.32812,-7.5 -12.406249,-12.531248 -21.671872,-12.531248 -13.8125,0 -25,11.187496 -25,25.000003 0,0.421854 0.01564,0.843751 0.03128,1.265624 C 10.293425,40.320126 4.0121776,48.663873 4.0121776,58.476373 Z"
       id="path1-8"
       style="fill:#dfdfdf;fill-opacity:1;stroke-width:0.15625;stroke-dasharray:none" /></g><g
     id="layer1"
     style="stroke-width:0.999939;stroke-dasharray:none"><text
       xml:space="preserve"
       style="font-size:102.642px;font-family:'EnvyCodeR Nerd Font Mono';-inkscape-font-specification:'EnvyCodeR Nerd Font Mono, Normal';text-align:start;writing-mode:lr-tb;direction:ltr;text-anchor:start;fill:#9c0000;fill-opacity:1;stroke-width:6.97172;stroke-dasharray:none"
       x="22.435011"
       y="83.741295"
       id="text1"><tspan
         id="tspan1"
         style="fill:#9c0000;fill-opacity:1;stroke-width:6.97172;stroke-dasharray:none"
         x="22.435011"
         y="83.741295">󱠿</tspan></text></g><g
     id="layer4"
     transform="translate(-4.0121524,-3.4763728)"
     style="display:inline"><g
       id="g7"
       transform="matrix(6.2246409,0,0,6.2246409,-31.520205,-61.903368)"
       style="stroke-width:0.999939;stroke-dasharray:none"><text
         xml:space="preserve"
         style="font-style:normal;font-variant:normal;font-weight:bold;font-stretch:normal;font-size:2.47658px;font-family:'Hack Nerd Font';-inkscape-font-specification:'Hack Nerd Font, Bold';font-variant-ligatures:normal;font-variant-caps:normal;font-variant-numeric:normal;font-variant-east-asian:normal;display:inline;opacity:1;fill:#000000;fill-opacity:1;stroke:none;stroke-width:0.999939;stroke-dasharray:none;stroke-opacity:1"
         x="5.347527"
         y="26.512243"
         id="text6"
         transform="scale(1.0306481,0.97026328)"><tspan
           id="tspan6"
           x="5.347527"
           y="26.512243"
           style="font-style:normal;font-variant:normal;font-weight:normal;font-stretch:normal;font-size:2.47658px;font-family:'EnvyCodeR Nerd Font Mono';-inkscape-font-specification:'EnvyCodeR Nerd Font Mono, Normal';font-variant-ligatures:normal;font-variant-caps:normal;font-variant-numeric:normal;font-variant-east-asian:normal;fill:#000000;fill-opacity:1;stroke:none;stroke-width:0.999939;stroke-dasharray:none">RED-ARROW.IO</tspan></text></g></g></svg>
