<?xml version="1.0" encoding="UTF-8" standalone="no"?>
<!-- Created with Inkscape (http://www.inkscape.org/) -->

<svg
   width="100"
   height="100"
   viewBox="0 0 100 100"
   version="1.1"
   id="svg1"
   xml:space="preserve"
   sodipodi:docname="digital-rain.svg"
   inkscape:version="1.4 (86a8ad7, 2024-10-11)"
   xmlns:inkscape="http://www.inkscape.org/namespaces/inkscape"
   xmlns:sodipodi="http://sodipodi.sourceforge.net/DTD/sodipodi-0.dtd"
   xmlns:xlink="http://www.w3.org/1999/xlink"
   xmlns="http://www.w3.org/2000/svg"
   xmlns:svg="http://www.w3.org/2000/svg"><sodipodi:namedview
     id="namedview1"
     pagecolor="#000000"
     bordercolor="#ffffff"
     borderopacity="1"
     inkscape:showpageshadow="0"
     inkscape:pageopacity="0"
     inkscape:pagecheckerboard="1"
     inkscape:deskcolor="#505050"
     showgrid="true"
     inkscape:zoom="16"
     inkscape:cx="51.4375"
     inkscape:cy="47.15625"
     inkscape:window-width="3840"
     inkscape:window-height="2071"
     inkscape:window-x="-9"
     inkscape:window-y="-9"
     inkscape:window-maximized="1"
     inkscape:current-layer="g120"><inkscape:grid
       id="grid16"
       units="px"
       originx="0"
       originy="0"
       spacingx="1"
       spacingy="1"
       empcolor="#0099e5"
       empopacity="0.30196078"
       color="#0099e5"
       opacity="0.14901961"
       empspacing="4"
       enabled="true"
       visible="true" /></sodipodi:namedview><defs
     id="defs1"><linearGradient
       id="linearGradient122"
       inkscape:collect="always"><stop
         style="stop-color:#333333;stop-opacity:1;"
         offset="0"
         id="stop122" /><stop
         style="stop-color:#b1bac4;stop-opacity:0;"
         offset="1"
         id="stop123" /></linearGradient><clipPath
       clipPathUnits="userSpaceOnUse"
       id="clipPath3"><g
         inkscape:label="Clip"
         id="use3"
         style="display:inline;stroke-width:2.5;stroke-dasharray:none"
         transform="matrix(0.95573316,0,0,0.95573316,2.3909478,1.7750242)"><path
           d="m 8.122428,51.570702 c 0,11.40073 9.249648,20.650377 20.650376,20.650377 h 52.773183 c 10.138755,0 18.355895,-8.21713 18.355895,-18.355888 0,-8.876792 -6.309846,-16.290852 -14.684724,-17.983038 0.587959,-1.534436 0.917798,-3.212278 0.917798,-4.961822 0,-7.60049 -6.16643,-13.766922 -13.76692,-13.766922 -2.825083,0 -5.463741,0.860433 -7.643504,2.323168 C 60.752206,12.593116 53.338145,7.9754654 44.834206,7.9754654 c -12.677035,0 -22.944861,10.2678226 -22.944861,22.9448656 0,0.387175 0.01435,0.774388 0.02872,1.161582 -8.030713,2.825086 -13.7956074,10.48293 -13.7956074,19.488789 z"
           id="path23"
           style="fill:none;fill-opacity:1;stroke:#333333;stroke-width:3.38137;stroke-dasharray:none;stroke-opacity:1"
           inkscape:label="cloud-outline" /></g></clipPath><symbol
       id="AigaSymbols.svg:RightArrow"><title
         id="title272">Right Arrow</title><path
         d="M 63,36 41,58 H 26 L 42,42 H 10 V 30 H 42 L 26,14 h 15 z"
         style="stroke:none"
         id="path272" /></symbol><clipPath
       clipPathUnits="userSpaceOnUse"
       id="clipPath9"><g
         inkscape:label="Clip"
         id="use9"
         clip-path="none"><rect
           style="display:inline;fill:#333333;fill-opacity:0;stroke:#000000;stroke-width:0.498465;stroke-dasharray:none;stroke-opacity:0"
           id="rect10"
           width="161.82867"
           height="3.0959804"
           x="-50.898396"
           y="48.915173"
           clip-path="none" /></g></clipPath><clipPath
       clipPathUnits="userSpaceOnUse"
       id="clipPath121"><use
         x="0"
         y="0"
         xlink:href="#g120"
         id="use121" /></clipPath><linearGradient
       inkscape:collect="always"
       xlink:href="#linearGradient122"
       id="linearGradient123"
       x1="117.41602"
       y1="56.33807"
       x2="173.05678"
       y2="135.80132"
       gradientUnits="userSpaceOnUse"
       spreadMethod="pad" /></defs><g
     id="g23"
     transform="matrix(0.90643047,-0.21256955,0.23900296,1.0191467,-143.45363,9.291223)"
     style="display:inline"><g
       id="g31"
       transform="matrix(0.47823407,0.00681022,0.04743162,0.64533898,125.52804,53.785873)"
       style="display:inline;stroke:none;stroke-opacity:1;paint-order:fill markers stroke"><g
         id="g24"
         transform="matrix(3.3975258,-7.4615027e-5,4.8525128e-4,2.3460576,-674.41853,-102.53866)"
         style="display:inline;fill:#333333;fill-opacity:1;stroke:none;stroke-width:1.00009;stroke-dasharray:none;stroke-opacity:1;paint-order:fill markers stroke" /></g></g><path
     d="m 100.25872,102.95545 c 0,8.20439 9.45857,14.86079 21.11678,14.86079 h 53.9651 c 10.36773,0 18.77047,-5.91336 18.77047,-13.20959 0,-6.388073 -6.45238,-11.723493 -15.01639,-12.941253 0.60123,-1.10424 0.93852,-2.31167 0.93852,-3.57071 0,-5.46959 -6.30568,-9.907187 -14.07786,-9.907187 -2.88887,0 -5.58715,0.6192 -7.81612,1.671837 -4.06204,-4.953592 -11.64356,-8.276625 -20.33959,-8.276625 -12.96331,0 -23.46305,7.389104 -23.46305,16.511975 0,0.27863 0.0147,0.55728 0.0293,0.83591 -8.21208,2.03304 -14.10721,7.5439 -14.10721,14.024853 z"
     id="path1-8-8-1-6-8"
     style="display:none;fill:#b1bac4;fill-opacity:1;stroke:#333333;stroke-width:2.90068;stroke-dasharray:none;stroke-opacity:1"
     inkscape:label="cloud-outline"
     transform="matrix(0.93102202,0,0,1.0467963,-85.992728,-71.039307)" /><g
     inkscape:groupmode="layer"
     id="layer5"
     inkscape:label="cloud"
     style="display:inline"
     transform="matrix(0.93280057,0,0,0.93280057,-87.380064,-57.606136)"><g
       id="g121"
       clip-path="url(#clipPath121)"
       style="display:inline;stroke:none;stroke-opacity:1;paint-order:fill markers stroke"
       transform="matrix(0.99809332,0,0,1.122208,1.4872793,-14.400904)"><g
         inkscape:label="Clip"
         id="g120"
         transform="matrix(1,0,-0.12842926,1,12.15413,0)"><path
           id="path15"
           style="display:inline;fill:#333333;fill-opacity:1;stroke:none;stroke-width:1.89096;stroke-linecap:butt;stroke-linejoin:round;stroke-miterlimit:0.1;stroke-dasharray:none;stroke-opacity:1;paint-order:stroke markers fill"
           inkscape:label="arrow-head"
           inkscape:transform-center-x="0.24488197"
           inkscape:transform-center-y="0.18769979"
           d="m 132.19043,107.38106 2.50794,-3.70064 -1.68521,0.64737 -2.59665,3.7298 -3.05786,1.22735 3.24844,-4.6183 -6.67433,-0.78356 3.09123,-1.17019 5.3075,0.54188 1.68633,-0.64779 -5.3271,-0.55887 3.07673,-1.18235 5.28761,0.57437 27.25433,-10.470634 c -0.20355,-0.317805 -4.17373,-0.487637 -4.47436,-0.945247 5.29691,-2.019748 8.5149,-1.662543 12.93681,-1.528047 -2.57408,2.839284 -4.2088,4.900146 -9.48157,6.95072 -0.16136,-0.263798 1.97984,-2.934513 1.68731,-3.399207 L 137.71896,102.52 l -2.54548,3.71785 z"
           sodipodi:nodetypes="ccccccccccccccccccccc" /><path
           d="m 99.267416,103.84886 c -1.134864,7.73057 7.234114,14.00255 18.684314,14.00255 h 53.00224 c 10.18275,0 19.25356,-5.57185 20.26285,-12.44671 0.88362,-6.019134 -4.71554,-11.046429 -12.9583,-12.193858 0.74325,-1.040466 1.24155,-2.178169 1.41572,-3.364497 0.75657,-5.153712 -4.82272,-9.335025 -12.45622,-9.335025 -2.83733,0 -5.57312,0.58344 -7.90793,1.575285 -3.30433,-4.667512 -10.29091,-7.798633 -18.83178,-7.798633 -12.73201,0 -24.06655,6.962368 -25.32852,15.558373 -0.0381,0.262538 -0.0626,0.525097 -0.0868,0.787641 -8.34679,1.915626 -14.89905,7.108219 -15.795564,13.214874 z"
           id="path1-8-8-1-6"
           style="display:inline;fill:none;fill-opacity:1;stroke:url(#linearGradient123);stroke-width:4.87229998;stroke-dasharray:none;stroke-opacity:1;stroke-linejoin:miter;paint-order:normal"
           inkscape:label="cloud-outline" /></g><rect
         style="display:inline;fill:#333333;fill-opacity:1;stroke:#f1faee;stroke-width:1.20699;stroke-linecap:butt;stroke-linejoin:round;stroke-miterlimit:0.1;stroke-dasharray:none;stroke-opacity:1;paint-order:stroke markers fill"
         id="rect121"
         width="100.10827"
         height="45.363197"
         x="176.08598"
         y="62.42767"
         transform="matrix(0.93507598,0.35444732,-0.9134375,0.40697903,0,0)" /></g></g><rect
     style="display:inline;fill:#99a3b2;fill-opacity:1;stroke:none;stroke-width:0.571026;stroke-dasharray:none;stroke-opacity:1"
     id="rect31-9"
     width="3.9971845"
     height="3.9971845"
     x="21.730871"
     y="54.077053"
     rx="0"
     ry="0" /><rect
     style="display:inline;fill:#333333;fill-opacity:1;stroke:none;stroke-width:0.571026;stroke-dasharray:none;stroke-opacity:1"
     id="rect31-0"
     width="3.9971845"
     height="3.9971845"
     x="29.716389"
     y="53.988659"
     rx="0"
     ry="0" /><rect
     style="display:inline;fill:#99a3b2;fill-opacity:1;stroke:none;stroke-width:0.571026;stroke-dasharray:none;stroke-opacity:1"
     id="rect31-4"
     width="3.9971845"
     height="3.9971845"
     x="37.714584"
     y="53.988659"
     rx="0"
     ry="0" /><rect
     style="display:inline;fill:#333333;fill-opacity:1;stroke:none;stroke-width:0.434065;stroke-dasharray:none;stroke-opacity:1"
     id="rect31-3"
     width="3.9971845"
     height="2.3096845"
     x="53.666782"
     y="53.676159"
     rx="0"
     ry="0" /><rect
     style="display:inline;fill:#333333;fill-opacity:1;stroke:none;stroke-width:0.571026;stroke-dasharray:none;stroke-opacity:1"
     id="rect31-8-5"
     width="3.9971845"
     height="3.9971845"
     x="69.615562"
     y="53.983463"
     rx="0"
     ry="0" /><rect
     style="display:inline;fill:#333333;fill-opacity:1;stroke:none;stroke-width:0.571026;stroke-dasharray:none;stroke-opacity:1"
     id="rect33"
     width="3.9971845"
     height="3.9971845"
     x="17.730871"
     y="58.167828"
     rx="0"
     ry="0" /><rect
     style="display:inline;fill:#333333;fill-opacity:1;stroke:none;stroke-width:0.571026;stroke-dasharray:none;stroke-opacity:1"
     id="rect37"
     width="3.9971845"
     height="3.9971845"
     x="49.666782"
     y="56.079433"
     rx="0"
     ry="0" /><rect
     style="display:inline;fill:#333333;fill-opacity:1;stroke:none;stroke-width:0.571026;stroke-dasharray:none;stroke-opacity:1"
     id="rect39"
     width="3.9971845"
     height="3.9971845"
     x="65.615562"
     y="58.074238"
     rx="0"
     ry="0" /><rect
     style="display:inline;fill:#99a3b2;fill-opacity:1;stroke:none;stroke-width:0.571026;stroke-dasharray:none;stroke-opacity:1"
     id="rect80"
     width="3.9971845"
     height="3.9971845"
     x="13.714248"
     y="62.325752"
     rx="0"
     ry="0" /><rect
     style="display:inline;fill:#333333;fill-opacity:1;stroke:none;stroke-width:0.571026;stroke-dasharray:none;stroke-opacity:1"
     id="rect82"
     width="3.9971845"
     height="3.9971845"
     x="29.716389"
     y="62.238663"
     rx="0"
     ry="0" /><rect
     style="display:inline;fill:#333333;fill-opacity:1;stroke:none;stroke-width:0.571026;stroke-dasharray:none;stroke-opacity:1"
     id="rect84"
     width="3.9971845"
     height="3.9971845"
     x="45.756973"
     y="60.238663"
     rx="0"
     ry="0" /><rect
     style="display:inline;fill:#333333;fill-opacity:1;stroke:none;stroke-width:0.571026;stroke-dasharray:none;stroke-opacity:1"
     id="rect88"
     width="3.9971845"
     height="3.9971845"
     x="77.612816"
     y="62.233467"
     rx="0"
     ry="0" /><rect
     style="display:inline;fill:#333333;fill-opacity:1;stroke:none;stroke-width:0.571026;stroke-dasharray:none;stroke-opacity:1"
     id="rect94"
     width="3.9971845"
     height="3.9971845"
     x="41.756973"
     y="64.329437"
     rx="0"
     ry="0" /><rect
     style="display:inline;fill:#333333;fill-opacity:1;stroke:none;stroke-width:0.571026;stroke-dasharray:none;stroke-opacity:1"
     id="rect96"
     width="3.9971845"
     height="3.9971845"
     x="57.620789"
     y="66.329437"
     rx="0"
     ry="0" /><rect
     style="display:inline;fill:#333333;fill-opacity:1;stroke:none;stroke-width:0.571026;stroke-dasharray:none;stroke-opacity:1"
     id="rect97"
     width="3.9971845"
     height="3.9971845"
     x="65.615562"
     y="66.324242"
     rx="0"
     ry="0" /><rect
     style="display:inline;fill:#333333;fill-opacity:1;stroke:none;stroke-width:0.571026;stroke-dasharray:none;stroke-opacity:1"
     id="rect98"
     width="3.9971845"
     height="3.9971845"
     x="73.612816"
     y="66.324242"
     rx="0"
     ry="0" /><rect
     style="display:inline;fill:#333333;fill-opacity:1;stroke:none;stroke-width:0.571026;stroke-dasharray:none;stroke-opacity:1"
     id="rect101"
     width="3.9971845"
     height="3.9971845"
     x="21.730871"
     y="70.389557"
     rx="0"
     ry="0" /><rect
     style="display:inline;fill:#333333;fill-opacity:1;stroke:none;stroke-width:0.571026;stroke-dasharray:none;stroke-opacity:1"
     id="rect103"
     width="3.9971845"
     height="3.9971845"
     x="37.714584"
     y="68.301163"
     rx="0"
     ry="0" /><rect
     style="display:inline;fill:#333333;fill-opacity:1;stroke:none;stroke-width:0.571026;stroke-dasharray:none;stroke-opacity:1"
     id="rect111"
     width="3.9971845"
     height="3.9971845"
     x="17.730871"
     y="74.480331"
     rx="0"
     ry="0" /><rect
     style="display:inline;fill:#333333;fill-opacity:1;stroke:none;stroke-width:0.571026;stroke-dasharray:none;stroke-opacity:1"
     id="rect113"
     width="3.9971845"
     height="3.9971845"
     x="33.714584"
     y="72.391937"
     rx="0"
     ry="0" /><rect
     style="display:inline;fill:#333333;fill-opacity:1;stroke:none;stroke-width:0.571026;stroke-dasharray:none;stroke-opacity:1"
     id="rect115"
     width="3.9971845"
     height="3.9971845"
     x="49.666782"
     y="74.391937"
     rx="0"
     ry="0" /><rect
     style="display:inline;fill:#333333;fill-opacity:1;stroke:none;stroke-width:0.571026;stroke-dasharray:none;stroke-opacity:1"
     id="rect117"
     width="3.9971845"
     height="3.9971845"
     x="65.615562"
     y="74.386742"
     rx="0"
     ry="0" /><g
     id="path14"
     inkscape:transform-center-x="-2.1487251"
     transform="translate(70.235656,0.87372831)" /></svg>
