<?xml version="1.0" encoding="UTF-8" standalone="no"?>
<svg
   width="1280"
   zoomAndPan="magnify"
   viewBox="0 0 1280 1280"
   height="1280"
   preserveAspectRatio="xMidYMid"
   version="1.0"
   id="svg85"
   sodipodi:docname="infuzik.svg"
   inkscape:version="1.4 (86a8ad7, 2024-10-11)"
   xmlns:inkscape="http://www.inkscape.org/namespaces/inkscape"
   xmlns:sodipodi="http://sodipodi.sourceforge.net/DTD/sodipodi-0.dtd"
   xmlns="http://www.w3.org/2000/svg"
   xmlns:svg="http://www.w3.org/2000/svg">
  <sodipodi:namedview
     id="namedview85"
     pagecolor="#505050"
     bordercolor="#ffffff"
     borderopacity="1"
     inkscape:showpageshadow="0"
     inkscape:pageopacity="0"
     inkscape:pagecheckerboard="1"
     inkscape:deskcolor="#505050"
     inkscape:zoom="0.86408449"
     inkscape:cx="390.00816"
     inkscape:cy="530.04076"
     inkscape:window-width="3840"
     inkscape:window-height="2071"
     inkscape:window-x="-9"
     inkscape:window-y="-9"
     inkscape:window-maximized="1"
     inkscape:current-layer="svg85" />
  <defs
     id="defs16">
    <g
       id="g1" />
    <clipPath
       id="db6138e645">
      <path
         d="M 94.878906,35.875 H 280.12109 V 221.11719 H 94.878906 Z m 0,0"
         clip-rule="nonzero"
         id="path1" />
    </clipPath>
    <clipPath
       id="02b989fec9">
      <path
         d="m 187.5,35.875 c -51.15234,0 -92.621094,41.46875 -92.621094,92.62109 0,51.15235 41.468754,92.6211 92.621094,92.6211 51.15234,0 92.62109,-41.46875 92.62109,-92.6211 C 280.12109,77.34375 238.65234,35.875 187.5,35.875 Z m 0,0"
         clip-rule="nonzero"
         id="path2" />
    </clipPath>
    <clipPath
       id="99a211eaa0">
      <path
         d="M 94.878906,35.875 H 280.11719 V 221.11328 H 94.878906 Z m 0,0"
         clip-rule="nonzero"
         id="path3" />
    </clipPath>
    <clipPath
       id="248b0b5542">
      <path
         d="m 187.5,35.875 c -51.15234,0 -92.621094,41.464844 -92.621094,92.61719 0,51.15234 41.468754,92.62109 92.621094,92.62109 51.14844,0 92.61719,-41.46875 92.61719,-92.62109 C 280.11719,77.339844 238.64844,35.875 187.5,35.875 Z m 0,0"
         clip-rule="nonzero"
         id="path4" />
    </clipPath>
    <clipPath
       id="24fb3bb082">
      <path
         d="M 104.26563,45.953125 H 269.34766 V 211.03516 H 104.26563 Z m 0,0"
         clip-rule="nonzero"
         id="path5" />
    </clipPath>
    <clipPath
       id="ac0177811d">
      <path
         d="m 186.80859,45.953125 c -45.58593,0 -82.54296,36.957031 -82.54296,82.542965 0,45.58594 36.95703,82.53907 82.54296,82.53907 45.58594,0 82.53907,-36.95313 82.53907,-82.53907 0,-45.585934 -36.95313,-82.542965 -82.53907,-82.542965 z m 0,0"
         clip-rule="nonzero"
         id="path6" />
    </clipPath>
    <clipPath
       id="bb8a8e5ef6">
      <path
         d="M 104.26563,45.953125 H 269.26562 V 210.95312 H 104.26563 Z m 0,0"
         clip-rule="nonzero"
         id="path7" />
    </clipPath>
    <clipPath
       id="5f9bc30d00">
      <path
         d="m 186.80859,45.953125 c -45.58593,0 -82.54296,36.957031 -82.54296,82.542965 0,45.58594 36.95703,82.53907 82.54296,82.53907 45.58594,0 82.53907,-36.95313 82.53907,-82.53907 0,-45.585934 -36.95313,-82.542965 -82.53907,-82.542965 z m 0,0"
         clip-rule="nonzero"
         id="path8" />
    </clipPath>
    <clipPath
       id="84cd2e6772">
      <path
         d="m 187.17578,61 h 81 v 135 h -81 z m 0,0"
         clip-rule="nonzero"
         id="path9" />
    </clipPath>
    <clipPath
       id="803f622736">
      <path
         d="m 112.375,53.496094 h 77.25 V 202 h -77.25 z m 0,0"
         clip-rule="nonzero"
         id="path10" />
    </clipPath>
    <clipPath
       id="df2633dea2">
      <path
         d="m 187,186 h 8 v 12 h -8 z m 0,0"
         clip-rule="nonzero"
         id="path11" />
    </clipPath>
    <clipPath
       id="676b5fbcd4">
      <path
         d="m 194.51562,187.28516 -2.03515,11.0625 -5.89844,-1.08204 2.03516,-11.0664 z m 0,0"
         clip-rule="nonzero"
         id="path12" />
    </clipPath>
    <clipPath
       id="35a6eb7f10">
      <path
         d="m 195.90625,179.71484 -3.39063,18.44141 -5.89843,-1.08594 3.39062,-18.4375 z m 0,0"
         clip-rule="nonzero"
         id="path13" />
    </clipPath>
    <clipPath
       id="d036e34778">
      <path
         d="m 184,55 h 10 v 12 h -10 z m 0,0"
         clip-rule="nonzero"
         id="path14" />
    </clipPath>
    <clipPath
       id="373ffc83bd">
      <path
         d="m 188.94141,55.699219 6.58203,9.125 -4.86719,3.507812 -6.58203,-9.125 z m 0,0"
         clip-rule="nonzero"
         id="path15" />
    </clipPath>
    <clipPath
       id="38792b75a3">
      <path
         d="m 184.44141,49.457031 10.96875,15.207031 -4.86719,3.511719 -10.96875,-15.210937 z m 0,0"
         clip-rule="nonzero"
         id="path16" />
    </clipPath>
  </defs>
  <g
     clip-path="url(#db6138e645)"
     id="g18"
     transform="matrix(6.7709057,0,0,6.7709057,-629.54481,-230.03494)">
    <g
       clip-path="url(#02b989fec9)"
       id="g17">
      <path
         fill="#ffffff"
         d="M 94.878906,35.875 H 280.12109 V 221.11719 H 94.878906 Z m 0,0"
         fill-opacity="1"
         fill-rule="nonzero"
         id="path17" />
    </g>
  </g>
  <g
     clip-path="url(#99a211eaa0)"
     id="g20"
     transform="matrix(6.7709057,0,0,6.7709057,-629.54481,-230.03494)">
    <g
       clip-path="url(#248b0b5542)"
       id="g19">
      <path
         stroke-linecap="butt"
         transform="matrix(0.75,0,0,0.75,94.879085,35.874461)"
         fill="none"
         stroke-linejoin="miter"
         d="M 123.49456,7.19194e-4 C 55.291431,7.19194e-4 -2.38959e-4,55.287181 -2.38959e-4,123.49031 c 0,68.20313 55.291669959,123.4948 123.494798959,123.4948 68.19792,0 123.48959,-55.29167 123.48959,-123.4948 0,-68.203129 -55.29167,-123.489590806 -123.48959,-123.489590806 z m 0,0"
         stroke="#d5ad60"
         stroke-width="18"
         stroke-opacity="1"
         stroke-miterlimit="4"
         id="path18" />
    </g>
  </g>
  <g
     clip-path="url(#24fb3bb082)"
     id="g22"
     transform="matrix(6.7709057,0,0,6.7709057,-629.54481,-230.03494)">
    <g
       clip-path="url(#ac0177811d)"
       id="g21">
      <path
         fill="#ffffff"
         d="M 104.26563,45.953125 H 269.34766 V 211.03516 H 104.26563 Z m 0,0"
         fill-opacity="1"
         fill-rule="nonzero"
         id="path20" />
    </g>
  </g>
  <g
     clip-path="url(#bb8a8e5ef6)"
     id="g24"
     transform="matrix(6.7709057,0,0,6.7709057,-629.54481,-230.03494)">
    <g
       clip-path="url(#5f9bc30d00)"
       id="g23">
      <path
         stroke-linecap="butt"
         transform="matrix(0.75,0,0,0.75,104.26678,45.954076)"
         fill="none"
         stroke-linejoin="miter"
         d="m 110.05576,-0.00126824 c -60.781253,0 -110.05729794,49.27604524 -110.05729794,110.05729824 0,60.78125 49.27604494,110.05209 110.05729794,110.05209 60.78125,0 110.05209,-49.27084 110.05209,-110.05209 0,-60.781253 -49.27084,-110.05729824 -110.05209,-110.05729824 z m 0,0"
         stroke="#ffffff"
         stroke-width="18"
         stroke-opacity="1"
         stroke-miterlimit="4"
         id="path22" />
    </g>
  </g>
  <g
     clip-path="url(#84cd2e6772)"
     id="g25"
     transform="matrix(6.7709057,0,0,6.7709057,-629.54481,-230.03494)">
    <path
       fill="#d5ad60"
       d="m 219.41016,195.5625 c -0.0352,0 -0.0664,0 -0.0859,0 -1.69922,-0.0547 -3.09375,-1.375 -3.19531,-3.07813 l -6.80469,-98.472651 -8.64063,54.785151 c -0.23828,1.46094 -1.42578,2.59375 -2.88672,2.76563 -1.52734,0.15625 -2.88281,-0.6875 -3.43359,-2.05859 l -6.47656,-16.16797 -5.3086,7.97265 c -0.65234,0.9961 -1.78906,1.54688 -2.95703,1.47657 -1.16797,-0.0859 -2.21484,-0.77344 -2.74609,-1.82032 l -5.5,-11.03125 -6.08203,15.17188 c -0.54688,1.39062 -1.97266,2.17969 -3.45313,2.05859 -1.47656,-0.1875 -2.66015,-1.33984 -2.86718,-2.8164 l -5.61719,-39.27344 -9.84375,65.69531 c -0.24219,1.61719 -1.63281,2.80078 -3.26563,2.80078 0,0 0,0 -0.0156,0 -1.63281,0 -3.00781,-1.20312 -3.2461,-2.83203 l -6.61718,-46.25 -4.55078,15.91016 c -0.34375,1.23437 -1.375,2.14453 -2.66407,2.35156 -1.2539,0.19141 -2.52343,-0.35938 -3.24609,-1.44141 l -6.5625,-9.84375 -5.94531,5.96094 c -1.28906,1.28906 -3.38281,1.28906 -4.67188,0 -1.28906,-1.28906 -1.28906,-3.38672 0,-4.67187 l 8.79688,-8.79688 c 0.70312,-0.70703 1.6289,-1.0664 2.66015,-0.94531 0.98047,0.10156 1.875,0.63672 2.42188,1.46094 l 4.84766,7.25 6.83593,-23.9336 c 0.41406,-1.47656 1.8711,-2.45703 3.38672,-2.37109 1.5625,0.10547 2.81641,1.27344 3.03906,2.82031 l 5.61719,39.26953 9.84375,-65.675779 c 0.24219,-1.617187 1.63281,-2.816406 3.26563,-2.816406 0,0 0.0156,0 0.0156,0 1.63281,0 3.02344,1.21875 3.24609,2.832031 l 7.04688,49.359374 4.22266,-10.53125 c 0.48437,-1.20312 1.61718,-2.02734 2.92187,-2.07812 1.46094,-0.0703 2.50781,0.66797 3.09375,1.82031 l 6.25391,12.50781 5.63281,-8.45312 c 0.6875,-1.03125 1.82031,-1.61719 3.09375,-1.46094 1.21875,0.12109 2.26562,0.92578 2.71484,2.0625 l 4.34375,10.85547 11.32422,-71.722659 c 0.27344,-1.652343 1.57813,-2.886719 3.40235,-2.785156 1.68359,0.08594 3.03906,1.390625 3.14062,3.074219 l 6.46094,93.578126 8.98437,-71.777345 c 0.19141,-1.648437 1.59766,-2.886719 3.26563,-2.886719 0.0156,0 0.0156,0 0.0156,0 1.6836,0.01953 3.07422,1.273438 3.26563,2.941406 l 5.92578,53.339848 5.12109,-35.85157 c 0.22266,-1.61718 1.61328,-2.82031 3.2461,-2.83593 0,0 0.0156,0 0.0156,0 1.63281,0 3.00781,1.1875 3.26563,2.80078 l 6.71875,43.6875 4.48047,-13.45313 c 0.39843,-1.18359 1.44531,-2.05859 2.69921,-2.21484 1.23829,-0.1875 2.47266,0.3789 3.17969,1.44531 l 4.65235,6.97266 2.59765,-10.34375 c 0.3086,-1.26953 1.33985,-2.23047 2.625,-2.45313 1.32422,-0.20703 2.59766,0.34375 3.31641,1.42578 l 4.07422,6.11328 7.5039,-48.773432 c 0.25782,-1.648438 1.71875,-2.800782 3.35157,-2.800782 1.66796,0.05469 3.04296,1.324219 3.19531,2.972656 l 6.69922,67.003908 8.78125,-40.97656 c 0.32422,-1.47657 1.61328,-2.5586 3.10937,-2.60938 0.0508,0 0.0859,0 0.1211,0 1.47656,0 2.76562,0.96094 3.16015,2.38672 l 6.47656,22.64453 5,-10.01562 c 1.11719,-2.23438 4.79297,-2.23438 5.91016,0 l 4.39453,8.79296 c 0.8086,1.63282 0.15625,3.60938 -1.47656,4.4336 -1.63281,0.80859 -3.60547,0.15625 -4.42969,-1.47656 l -1.44531,-2.90235 -5.83984,11.69922 c -0.6211,1.20313 -1.85547,1.92188 -3.26563,1.80078 -1.35547,-0.11719 -2.49219,-1.0625 -2.85156,-2.36719 l -5.17188,-18.09374 -10.42578,48.65624 c -0.34375,1.59766 -1.71875,2.73047 -3.41797,2.60938 -1.61718,-0.0859 -2.9414,-1.35547 -3.09375,-2.97266 l -6.20312,-62.07031 -4.84375,31.45703 c -0.20703,1.33985 -1.21875,2.42188 -2.5586,2.71485 -1.32421,0.29296 -2.69921,-0.25782 -3.45312,-1.39063 l -4.65625,-6.97656 -2.59375,10.34375 c -0.30859,1.26953 -1.33984,2.23047 -2.62891,2.45703 -1.30468,0.22266 -2.59375,-0.32813 -3.3164,-1.42578 l -5.05078,-7.57813 -6.66407,19.9961 c -0.48437,1.42578 -1.85547,2.39062 -3.40234,2.23437 -1.51172,-0.12109 -2.75,-1.26953 -2.99219,-2.78125 l -5.41015,-35.20312 -5.65235,39.5664 c -0.22265,1.62891 -1.63281,2.83203 -3.26172,2.83203 -0.0195,0 -0.0352,0 -0.0547,0 -1.66407,-0.0312 -3.03907,-1.28906 -3.22657,-2.9375 l -5.70703,-51.38281 -9.73828,77.82422 c -0.19141,1.64844 -1.59766,2.88672 -3.26562,2.88672"
       fill-opacity="1"
       fill-rule="nonzero"
       id="path24" />
  </g>
  <g
     clip-path="url(#803f622736)"
     id="g26"
     transform="matrix(6.7709057,0,0,6.7709057,-629.54481,-230.03494)">
    <path
       fill="#d5ad60"
       d="m 172.70312,53.859375 c -1.00781,0.03125 -2.01953,0.148437 -3.03125,0.355469 -7.8789,1.519531 -15.60937,7.316406 -19.17968,16.324218 -3.44922,0.179688 -6.75,1.011719 -9.75391,2.707032 -6.74609,3.835937 -11.23828,11.894531 -11.35547,24.085937 -3.15234,1.546875 -5.76953,3.746099 -7.64453,6.542969 -4.90625,7.22266 -4.8164,17.54297 1.07031,27.38281 -6.83593,5.73828 -10.43359,13.32031 -9.89843,20.9336 0.53515,8.05859 5.70703,15.78906 15.04297,21.08203 0.86328,4.2539 2.58984,7.85156 5.14453,10.67578 5.32421,5.94531 13.4414,8.41406 21.85546,8.53515 2.91407,4.10157 6.69141,6.98438 10.91407,8.41407 7.19531,2.46875 15.42968,0.44531 21.34765,-6.00782 5.94922,6.45313 14.15235,8.47657 21.35157,6.00782 4.1914,-1.42969 7.99609,-4.34375 10.88281,-8.41407 8.41406,-0.12109 16.53125,-2.58984 21.85547,-8.53515 2.52734,-2.82422 4.28125,-6.42188 5.14062,-10.67578 9.33985,-5.29297 14.51172,-13.02344 15.04688,-21.08203 0.50781,-7.61329 -3.09375,-15.19532 -9.90235,-20.9336 5.88672,-9.8125 5.94922,-20.16015 1.07032,-27.38281 -1.8711,-2.79687 -4.51954,-4.996094 -7.64063,-6.542969 -0.11719,-12.191406 -4.57812,-20.28125 -11.32812,-24.085937 -3.00391,-1.695313 -6.33594,-2.527344 -9.75391,-2.707032 -3.59766,-9.007812 -11.30078,-14.804687 -19.17969,-16.324218 -1.01172,-0.207032 -2.01953,-0.296875 -3.0625,-0.355469 -5.53125,-0.207031 -10.9414,1.933594 -14.42187,6.453125 -3.59766,-4.550781 -9.03907,-6.691406 -14.57032,-6.453125 z m 26.82422,5.382813 c 0.59375,-0.03125 1.21875,-0.03125 1.83985,0 0.74609,0.05859 1.48828,0.148437 2.26172,0.296874 5.5,1.070313 11.23828,5.023438 14.36328,11.300782 -2.61719,0.382812 -5.23438,1.097656 -7.76172,2.078125 -3.26953,1.371093 -1.36719,6.277343 1.99219,5.085937 6.75,-2.644531 13.70703,-2.855468 18.70312,-0.03125 4.57813,2.589844 8.02734,7.851563 8.50391,17.546875 -4.57813,-0.921875 -9.8125,-0.714843 -15.49219,1.097657 -3.50781,1.101562 -1.8125,6.363282 1.66406,5.203122 11.0625,-3.53906 18.67578,-0.5039 22.48047,5.08594 3.80469,5.58984 3.92578,14.36328 -2.34766,23.40234 -1.04296,1.39453 -0.50781,3.41797 1.09766,4.13282 6.57422,4.96484 9.57422,11.26953 9.1875,17.33593 -0.35547,5.17188 -3.17969,10.375 -9.09766,14.65625 -0.0898,-3.32812 -0.5625,-6.89843 -1.63281,-10.82031 -0.30078,-1.19141 -1.37109,-2.02344 -2.58984,-2.05469 -1.84375,-0.0273 -3.17969,1.72657 -2.64453,3.48047 3.15234,11.44922 1.25,18.61328 -2.85547,23.19141 -3.39063,3.77734 -8.65235,5.94922 -14.71875,6.54297 1.10156,-2.67578 1.93359,-5.64844 2.34765,-8.92188 0.23829,-1.63281 -1.00781,-3.08984 -2.64453,-3.12109 -1.39843,-0.0273 -2.58593,1.04297 -2.73437,2.4375 -1.3086,10.34765 -6.72266,16.47265 -12.66797,18.49609 -5.73828,1.96094 -12.10156,0.32813 -16.85938,-6.15625 v -29.28906 c 2.88282,-4.69531 6.27344,-6.77734 11.80469,-6.42188 3.71485,0.32813 4.07422,-5.29296 0.35547,-5.4414 -4.69922,-0.29688 -8.83203,1.07031 -12.16016,3.6875 V 66.378906 c 0,-0.0625 0.0273,-0.121094 0.0273,-0.148437 1.84375,-4.582031 5.35547,-6.75 9.57812,-6.988281 z m -26.61328,0 c 5.05469,-0.328126 9.36719,1.753906 11.50781,7.046874 0,0.02734 0,0.05859 0,0.117188 v 40.26172 c -3.33203,-2.64453 -7.46484,-4.07422 -12.22265,-3.74609 -3.53906,0.32812 -3.17969,5.58984 0.35547,5.4414 5.5625,-0.35547 8.98047,1.72266 11.86718,6.48047 v 74.78516 c -4.78906,6.45312 -11.15234,8.11718 -16.89062,6.15234 -5.91797,-2.01953 -11.35938,-8.14453 -12.66797,-18.49219 -0.14844,-1.42969 -1.36719,-2.5 -2.82422,-2.4375 -1.60547,0.0586 -2.79297,1.51563 -2.58594,3.1211 0.41407,3.26953 1.2461,6.24218 2.34766,8.91796 -6.06641,-0.62109 -11.35937,-2.76171 -14.74609,-6.57031 -4.10547,-4.57812 -5.94922,-11.74609 -2.82813,-23.1914 0.41797,-1.45704 -0.41406,-2.97266 -1.84375,-3.39063 -0.29687,-0.0898 -0.59375,-0.11719 -0.89062,-0.11719 -1.1875,0.0586 -2.23047,0.89063 -2.52735,2.05078 -1.07031,3.92579 -1.57421,7.49219 -1.63671,10.82422 -5.88672,-4.28515 -8.74219,-9.48828 -9.09766,-14.66015 -0.41406,-6.21485 2.73437,-12.69922 9.66406,-17.72266 1.25,-0.86328 1.54688,-2.55859 0.68359,-3.80469 -0.0898,-0.12109 -0.17968,-0.23828 -0.29687,-0.35937 -6.00781,-8.89063 -5.88672,-17.48438 -2.14062,-23.01172 3.80468,-5.58984 11.44921,-8.65625 22.50781,-5.08594 3.53906,1.25 5.26562,-4.16406 1.66797,-5.203122 -5.67969,-1.816407 -10.94532,-2.050782 -15.52344,-1.101563 0.47656,-9.691406 3.92578,-14.957031 8.5039,-17.542969 4.9961,-2.824218 11.95313,-2.617187 18.70313,0.03125 3.39062,1.335938 5.38281,-3.777344 1.99219,-5.117187 -2.52735,-0.980469 -5.14453,-1.695313 -7.76172,-2.078125 3.125,-6.277344 8.86328,-10.230469 14.36328,-11.300782 0.83203,-0.148437 1.57422,-0.238281 2.32031,-0.296874 z m 0,0"
       fill-opacity="1"
       fill-rule="nonzero"
       id="path25" />
  </g>
  <path
     fill="#d5ad60"
     d="m 318.56709,503.28588 c -10.26212,0.39679 -18.11743,9.04553 -17.50915,19.33413 0.18551,3.01513 1.00506,6.0303 2.59204,8.64875 26.1843,44.27533 58.79576,73.28975 95.85061,88.18049 1.005,0.39675 2.0101,0.60799 2.80357,1.00507 -18.51422,41.47179 -49.11555,57.79069 -92.20069,53.16214 -10.077,-1.42826 -19.51926,5.42202 -20.94751,15.49902 -1.40175,10.0506 5.44849,19.51922 15.52549,20.92101 0.39679,0 1.00507,0.2112 1.40179,0.2112 57.97585,6.03037 108.09646,-24.14777 132.0591,-80.72187 25.78762,4.02024 52.76547,3.01517 80.14007,-2.43332 10.077,-1.19019 17.32396,-10.47372 16.10729,-20.52432 -1.21666,-10.07701 -10.47372,-17.32396 -20.55072,-16.1073 -0.79347,0.1848 -1.58698,0.1848 -2.40685,0.39679 -36.63169,7.24696 -69.24315,6.03037 -98.0459,-5.63362 -28.77635,-11.69038 -54.74913,-33.82805 -77.7067,-72.89299 -3.83511,-5.81878 -10.26216,-9.2571 -17.11244,-9.04554 z m 0,0"
     fill-opacity="1"
     fill-rule="nonzero"
     id="path26"
     style="stroke-width:6.7709" />
  <path
     fill="#d5ad60"
     d="m 508.20533,707.23295 c -4.02023,0.1848 -8.04046,2.01014 -11.05563,4.62858 -25.17931,21.95248 -46.10031,47.5021 -55.569,78.71177 -6.63868,21.95251 -7.06187,46.10031 -0.60803,72.28472 -32.82305,-5.0253 -68.05289,0.39675 -104.28786,16.90077 -9.46862,3.83511 -13.88564,14.70559 -10.077,24.17424 3.83511,9.46869 14.70558,13.88564 24.17424,10.0506 0.39675,-0.1848 0.79347,-0.39679 1.19026,-0.58163 35.83811,-16.31896 66.43951,-19.14893 94.63394,-11.90197 28.19447,7.24699 54.96072,25.1793 80.53675,53.5589 6.42708,7.8553 18.11746,8.86041 25.97277,2.43332 7.85528,-6.45356 8.86034,-18.11747 2.40686,-25.97278 -0.18481,-0.42319 -0.60803,-0.60803 -1.00507,-1.0051 -21.13267,-23.56585 -44.48693,-41.89495 -69.85143,-53.95565 -13.09217,-30.41613 -14.09724,-54.16725 -7.67015,-75.11473 6.66508,-22.13767 22.34926,-42.2652 44.51344,-61.59933 13.48892,-11.47879 4.41691,-33.82812 -13.30384,-32.61146 z m 0,0"
     fill-opacity="1"
     fill-rule="nonzero"
     id="path27"
     style="stroke-width:6.7709" />
  <path
     fill="#d5ad60"
     d="m 562.16099,279.60792 c -9.44226,0.39676 -17.11241,8.04043 -17.69428,17.50916 -2.83005,41.4718 -22.77246,64.03265 -50.14702,74.08326 -27.37456,10.077 -64.03265,6.0568 -98.0459,-15.49899 -8.46362,-5.63369 -19.94241,-3.41196 -25.57602,4.84011 -5.63358,8.43715 -3.41192,19.91601 4.84011,25.57598 0.39678,0.18481 0.7935,0.39679 1.0051,0.58163 42.29174,26.79269 90.58731,33.43137 130.65732,18.72582 40.07001,-14.67911 70.27455,-52.95059 74.10966,-106.08637 0.79351,-10.077 -6.66512,-19.1225 -16.92724,-19.94241 -0.60803,0 -1.40179,0 -2.22173,0.21121 z m 0,0"
     fill-opacity="1"
     fill-rule="nonzero"
     id="path28"
     style="stroke-width:6.7709" />
  <g
     clip-path="url(#df2633dea2)"
     id="g31"
     transform="matrix(6.7709057,0,0,6.7709057,-629.54481,-230.03494)">
    <g
       clip-path="url(#676b5fbcd4)"
       id="g30">
      <g
         clip-path="url(#35a6eb7f10)"
         id="g29">
        <path
           fill="#ffffff"
           d="m 189.99609,180.30469 c -0.0508,0.0156 -0.0859,0.0469 -0.10937,0.0937 -0.0195,0.0469 -0.0195,0.0977 0,0.14453 0.82422,1.80078 1.0625,4.625 0.5039,7.66797 -0.55859,3.04687 -1.78515,5.59765 -3.19921,6.98828 -0.0352,0.0391 -0.0547,0.082 -0.0508,0.13672 0.004,0.0547 0.0273,0.0977 0.0703,0.1289 l 2.83593,2.15235 c 0.082,0.0625 0.16016,0.0586 0.23438,-0.0195 0.30859,-0.33985 0.59766,-0.69141 0.86328,-1.0625 1.44141,-1.98829 2.53125,-4.69532 3.07031,-7.6211 0.53516,-2.92578 0.48047,-5.83984 -0.16015,-8.21094 -0.11719,-0.4414 -0.26172,-0.875 -0.42969,-1.30078 -0.0391,-0.0977 -0.10938,-0.13281 -0.21094,-0.10156 z m 0,0"
           fill-opacity="1"
           fill-rule="nonzero"
           id="path29" />
      </g>
    </g>
  </g>
  <g
     clip-path="url(#d036e34778)"
     id="g34"
     transform="matrix(6.7709057,0,0,6.7709057,-629.54481,-230.03494)">
    <g
       clip-path="url(#373ffc83bd)"
       id="g33">
      <g
         clip-path="url(#38792b75a3)"
         id="g32">
        <path
           fill="#ffffff"
           d="m 180.77344,54.128906 c -0.0234,0.05078 -0.0234,0.09766 -0.004,0.148438 0.0195,0.04687 0.0547,0.08203 0.10156,0.09766 1.8711,0.652344 4.07422,2.433594 5.88672,4.945312 1.8125,2.511719 2.80469,5.164063 2.83203,7.140626 0,0.05469 0.0234,0.09766 0.0625,0.132812 0.0391,0.03516 0.0859,0.04687 0.14063,0.03906 l 3.51562,-0.558593 c 0.10547,-0.01563 0.15235,-0.07813 0.14844,-0.183594 -0.0312,-0.457031 -0.0898,-0.910156 -0.17187,-1.359375 -0.4375,-2.414062 -1.63672,-5.074219 -3.375,-7.484375 -1.74219,-2.414063 -3.88672,-4.390625 -6.03907,-5.570313 -0.39843,-0.21875 -0.8125,-0.414062 -1.23437,-0.585937 -0.10156,-0.04297 -0.17188,-0.01563 -0.22266,0.07813 z m 0,0"
           fill-opacity="1"
           fill-rule="nonzero"
           id="path31" />
      </g>
    </g>
  </g>
</svg>
