<?xml version="1.0" encoding="UTF-8" standalone="no"?>
<svg
   width="40"
   height="40"
   viewBox="0 0 40 40"
   version="1.1"
   id="svg7"
   sodipodi:docname="parsons.svg"
   inkscape:version="1.4 (86a8ad7, 2024-10-11)"
   xmlns:inkscape="http://www.inkscape.org/namespaces/inkscape"
   xmlns:sodipodi="http://sodipodi.sourceforge.net/DTD/sodipodi-0.dtd"
   xmlns="http://www.w3.org/2000/svg"
   xmlns:svg="http://www.w3.org/2000/svg">
  <sodipodi:namedview
     id="namedview7"
     pagecolor="#505050"
     bordercolor="#ffffff"
     borderopacity="1"
     inkscape:showpageshadow="0"
     inkscape:pageopacity="0"
     inkscape:pagecheckerboard="1"
     inkscape:deskcolor="#505050"
     inkscape:zoom="30.55"
     inkscape:cx="19.983633"
     inkscape:cy="20"
     inkscape:window-width="3840"
     inkscape:window-height="2071"
     inkscape:window-x="-9"
     inkscape:window-y="-9"
     inkscape:window-maximized="1"
     inkscape:current-layer="layer1" />
  <defs
     id="defs7">
    <linearGradient
       id="linear-gradient"
       x1="125.41001"
       y1="455.49086"
       x2="114.25895"
       y2="420.0392"
       gradientUnits="userSpaceOnUse"
       gradientTransform="scale(1.1758587,0.8504423)">
      <stop
         offset="0"
         stop-color="#00aee6"
         id="stop1" />
      <stop
         offset="0.223"
         stop-color="#00aee6"
         id="stop2" />
      <stop
         offset="0.383"
         stop-color="#00a9e6"
         id="stop3" />
      <stop
         offset="0.545"
         stop-color="#009de6"
         id="stop4" />
      <stop
         offset="0.707"
         stop-color="#0089e6"
         id="stop5" />
      <stop
         offset="0.868"
         stop-color="#016de6"
         id="stop6" />
      <stop
         offset="0.999"
         stop-color="#0251e6"
         id="stop7" />
    </linearGradient>
  </defs>
  <g
     inkscape:groupmode="layer"
     id="layer1"
     inkscape:label="Circle_Mask"
     style="fill:#000000;fill-opacity:0.29912;stroke:none;stroke-opacity:1"
     transform="matrix(1.0355742,0,0,1.0355742,-0.71148304,-0.71148304)">
    <circle
       style="opacity:1;fill:#000000;fill-opacity:0.29912;stroke:none;stroke-width:1;stroke-linejoin:bevel;stroke-miterlimit:0.1;stroke-dasharray:none;stroke-opacity:1"
       id="path7"
       cx="20"
       cy="20"
       r="19.322954" />
  </g>
  <g
     id="Group_5997"
     data-name="Group 5997"
     transform="matrix(0.71995749,0,0,0.71995749,-82.824441,-253.92691)"
     style="display:inline">
    <g
       id="Group_5999"
       data-name="Group 5999"
       transform="translate(125.787,360.372)">
      <g
         id="Group_5998"
         data-name="Group 5998"
         transform="translate(0.007)">
        <g
           id="Group_5997-2"
           data-name="Group 5997">
          <path
             id="Path_56019"
             data-name="Path 56019"
             d="m 157.213,363.531 q -2.719,-3.158 -8.068,-3.159 H 126 l 10.817,8.991 h 8.35 a 4.167,4.167 0 0 1 2.439,0.545 2.587,2.587 0 0 1 0.724,2.158 v 1.876 q 0,2.442 -3.164,2.442 h -8.349 l -11.013,8.6 h 21.047 a 32.731,32.731 0 0 0 6.059,-0.351 8.062,8.062 0 0 0 3.555,-1.93 10.67,10.67 0 0 0 3.381,-8.378 v -2.238 q -0.002,-5.574 -2.633,-8.556 z"
             transform="translate(-125.802,-360.372)"
             fill="url(#linear-gradient)"
             style="fill:url(#linear-gradient)" />
        </g>
      </g>
      <path
         id="Path_56020"
         data-name="Path 56020"
         d="m 125.79,403.438 v 15.6 l 11.019,-8.6 v -7.015 z"
         transform="translate(-125.79,-378.829)"
         fill="#50bf34" />
      <path
         id="Path_56021"
         data-name="Path 56021"
         d="m 136.809,405.712 v -2.263 H 125.79 Z"
         transform="translate(-125.79,-378.84)"
         fill="#097538" />
    </g>
    <!-- <g id="Group_6000" data-name="Group 6000" transform="translate(176.796 369.354)">
      <path id="Path_56022" data-name="Path 56022" d="M215.077,376.1h13.677a4.764,4.764,0,0,1,3.818,1.5,5.932,5.932,0,0,1,1.245,4.048V382.7a5.05,5.05,0,0,1-1.6,3.965,3.82,3.82,0,0,1-1.683.913,15.487,15.487,0,0,1-2.867.166H220.6v3.92h-5.525Zm5.45,7.579h6.342q1.5,0,1.5-1.156v-.888a1.224,1.224,0,0,0-.343-1.021,1.974,1.974,0,0,0-1.155-.258h-6.342Z" transform="translate(-215.077 -376.095)" fill="#fff"/>
      <path id="Path_56023" data-name="Path 56023" d="M249.856,391.662h-5.809l8.589-15.567H258.9l8.567,15.567h-5.932l-1.494-2.65h-8.817Zm5.746-10.787-2.7,4.814h5.268Z" transform="translate(-227.497 -376.095)" fill="#fff"/>
      <path id="Path_56024" data-name="Path 56024" d="M304.764,382.426A2.888,2.888,0,0,1,303.7,385a4.447,4.447,0,0,1-.773.415,3.109,3.109,0,0,1,1.841,3.03v3.217H299.5v-3.18q0-.889-1.033-.888h-7.03v4.069h-5.152V376.1h13.682a5.188,5.188,0,0,1,3.094.789,3.973,3.973,0,0,1,1.7,3.383Zm-13.327,1.285h6.8q1.522,0,1.523-.981v-1.294a1.059,1.059,0,0,0-.282-.866,1.626,1.626,0,0,0-.97-.219h-7.073Z" transform="translate(-245.605 -376.095)" fill="#fff"/>
      <path id="Path_56025" data-name="Path 56025" d="M334.15,387.705a2.639,2.639,0,0,0,1.143-.142.689.689,0,0,0,.29-.606v-.3a.935.935,0,0,0-.249-.728,3.454,3.454,0,0,0-1.474-.162H327.4a6.675,6.675,0,0,1-3.654-.811,3.628,3.628,0,0,1-1.495-3.286v-.748q0-4.137,3.921-4.7a25.039,25.039,0,0,1,3.05-.125h4.626a16.045,16.045,0,0,1,2.966.187,4.1,4.1,0,0,1,2.293,1.3,3.553,3.553,0,0,1,.861,2.42v.125H328.513a1.581,1.581,0,0,0-.829.146.7.7,0,0,0-.353.564v.271q0,.606.415.731a1.771,1.771,0,0,0,.455.042h7.247a6.389,6.389,0,0,1,3.333.663q1.615,1.035,1.616,3.833v.684a7.1,7.1,0,0,1-.125,1.513,3.743,3.743,0,0,1-.892,1.7,4.822,4.822,0,0,1-2.9,1.285,18.038,18.038,0,0,1-2.322.1h-6.531a7.261,7.261,0,0,1-3.878-.775,2.977,2.977,0,0,1-.985-1.12,3.08,3.08,0,0,1-.383-1.456v-.607Z" transform="translate(-261.026 -376.095)" fill="#fff"/>
      <path id="Path_56026" data-name="Path 56026" d="M370.452,376.1q2.185,0,2.83.083a4.11,4.11,0,0,1,2.393,1.017,5.445,5.445,0,0,1,1.54,3.092,22.475,22.475,0,0,1,.083,2.553v3.176q0,3.425-1.473,4.442a6.362,6.362,0,0,1-2.49,1.037,15.35,15.35,0,0,1-2.614.166h-8.4a7.372,7.372,0,0,1-4.73-1.391q-1.308-1.038-1.308-4.172v-.809a4.608,4.608,0,0,1-.017-.644l.017-1.806a16.724,16.724,0,0,1,.166-2.781,4.31,4.31,0,0,1,3.663-3.84,15.355,15.355,0,0,1,2.352-.125Zm-6.326,4.256a3.207,3.207,0,0,0-1.682.289,1.968,1.968,0,0,0-.624,1.692v3.012a8.4,8.4,0,0,0,.023.887q.187,1.176,1.89,1.176h6.128q1.911,0,1.911-1.671V381.9q0-1.547-1.933-1.547Z" transform="translate(-275.606 -376.095)" fill="#fff"/>
      <path id="Path_56027" data-name="Path 56027" d="M402.3,391.662h-5.376V376.1h7.57l8.109,10.153V376.1h5.152v15.567H410.3l-8-10Z" transform="translate(-293.039 -376.095)" fill="#fff"/>
      <path id="Path_56028" data-name="Path 56028" d="M448.568,387.705a2.633,2.633,0,0,0,1.142-.142.688.688,0,0,0,.29-.606v-.3a.935.935,0,0,0-.249-.728,3.456,3.456,0,0,0-1.474-.162h-6.456a6.673,6.673,0,0,1-3.654-.811,3.628,3.628,0,0,1-1.494-3.286v-.748q0-4.137,3.921-4.7a25.037,25.037,0,0,1,3.049-.125h4.626a16.05,16.05,0,0,1,2.966.187,4.1,4.1,0,0,1,2.292,1.3,3.555,3.555,0,0,1,.861,2.42v.125H442.931a1.581,1.581,0,0,0-.829.146.7.7,0,0,0-.353.564v.271q0,.606.414.731a1.778,1.778,0,0,0,.456.042h7.247a6.388,6.388,0,0,1,3.333.663q1.615,1.035,1.615,3.833v.684a7.14,7.14,0,0,1-.124,1.513,3.744,3.744,0,0,1-.892,1.7,4.818,4.818,0,0,1-2.9,1.285,18.043,18.043,0,0,1-2.322.1h-6.531a7.261,7.261,0,0,1-3.878-.775,2.977,2.977,0,0,1-.985-1.12,3.073,3.073,0,0,1-.383-1.456v-.607Z" transform="translate(-310.079 -376.095)" fill="#fff"/>
    </g>
    <path id="Path_56029" data-name="Path 56029" d="M136.8,405.712v-2.263H125.784Z" transform="translate(0 -18.468)" fill="#087538"/> -->
  </g>
</svg>
