<?xml version="1.0" encoding="UTF-8" standalone="no"?>
<svg
   width="500"
   zoomAndPan="magnify"
   viewBox="0 0 500 500"
   height="500"
   preserveAspectRatio="xMidYMid"
   version="1.0"
   id="svg4"
   sodipodi:docname="redarrowlogo.svg"
   inkscape:version="1.4 (86a8ad7, 2024-10-11)"
   xmlns:inkscape="http://www.inkscape.org/namespaces/inkscape"
   xmlns:sodipodi="http://sodipodi.sourceforge.net/DTD/sodipodi-0.dtd"
   xmlns="http://www.w3.org/2000/svg"
   xmlns:svg="http://www.w3.org/2000/svg">
  <sodipodi:namedview
     id="namedview4"
     pagecolor="#505050"
     bordercolor="#ffffff"
     borderopacity="1"
     inkscape:showpageshadow="0"
     inkscape:pageopacity="0"
     inkscape:pagecheckerboard="1"
     inkscape:deskcolor="#505050"
     inkscape:zoom="2.444"
     inkscape:cx="250"
     inkscape:cy="250"
     inkscape:window-width="3840"
     inkscape:window-height="2071"
     inkscape:window-x="-9"
     inkscape:window-y="-9"
     inkscape:window-maximized="1"
     inkscape:current-layer="svg4" />
  <defs
     id="defs2">
    <clipPath
       id="b8cd0c550c">
      <path
         d="M 55.125,37.5 H 225 V 331 H 55.125 Z m 0,0"
         clip-rule="nonzero"
         id="path1" />
    </clipPath>
    <clipPath
       id="14a142471c">
      <path
         d="M 108,184 H 319.875 V 321 H 108 Z m 0,0"
         clip-rule="nonzero"
         id="path2" />
    </clipPath>
  </defs>
  <g
     clip-path="url(#b8cd0c550c)"
     id="g3"
     transform="matrix(1.5587439,0,0,1.5587439,-42.255342,-36.775385)">
    <path
       fill="#ff3864"
       d="m 99.277344,202.49609 c 0,-33.75781 13.074216,-64.45703 34.433596,-87.32031 L 139.33203,135.6875 224.125,37.519531 H 102.41016 l 13.46875,28.625 C 79.082031,92.621094 55.117188,135.80469 55.117188,184.59375 c 0,80.55078 65.292972,145.84375 145.839842,145.84375 4.5625,0 9.07422,-0.21875 13.52734,-0.62891 C 149.80469,323.41406 99.277344,268.85547 99.277344,202.49609"
       fill-opacity="1"
       fill-rule="nonzero"
       id="path3" />
  </g>
  <g
     clip-path="url(#14a142471c)"
     id="g4"
     transform="matrix(1.5587439,0,0,1.5587439,-42.255342,-36.775385)">
    <path
       fill="#2de2e6"
       d="M 319.86328,231.20312 C 126.98828,325.6875 109.09766,184.96875 109.09766,184.96875 94.445312,337.43359 305.87109,320.41797 305.87109,320.41797 l -30.30078,-31.6875 44.29297,-57.52735"
       fill-opacity="1"
       fill-rule="nonzero"
       id="path4" />
  </g>
</svg>
